<?xml version="1.0" encoding="UTF-8" standalone="no"?>
<svg
   xmlns:dc="http://purl.org/dc/elements/1.1/"
   xmlns:cc="http://creativecommons.org/ns#"
   xmlns:rdf="http://www.w3.org/1999/02/22-rdf-syntax-ns#"
   xmlns:svg="http://www.w3.org/2000/svg"
   xmlns="http://www.w3.org/2000/svg"
   xmlns:sodipodi="http://sodipodi.sourceforge.net/DTD/sodipodi-0.dtd"
   xmlns:inkscape="http://www.inkscape.org/namespaces/inkscape"
   width="11.49292mm"
   height="11.209467mm"
   viewBox="0 0 11.49292 11.209467"
   version="1.1"
   id="svg202"
   inkscape:version="1.0.1 (3bc2e813f5, 2020-09-07)"
   sodipodi:docname="GitHub.svg">
  <defs
     id="defs196" />
  <sodipodi:namedview
     id="base"
     pagecolor="#ffffff"
     bordercolor="#666666"
     borderopacity="1.0"
     inkscape:pageopacity="0.0"
     inkscape:pageshadow="2"
     inkscape:zoom="1.4"
     inkscape:cx="45.471155"
     inkscape:cy="207.57868"
     inkscape:document-units="mm"
     inkscape:current-layer="layer1"
     inkscape:document-rotation="0"
     showgrid="false"
     inkscape:window-width="1254"
     inkscape:window-height="1041"
     inkscape:window-x="2154"
     inkscape:window-y="0"
     inkscape:window-maximized="0" />
  <metadata
     id="metadata199">
    <rdf:RDF>
      <cc:Work
         rdf:about="">
        <dc:format>image/svg+xml</dc:format>
        <dc:type
           rdf:resource="http://purl.org/dc/dcmitype/StillImage" />
        <dc:title></dc:title>
      </cc:Work>
    </rdf:RDF>
  </metadata>
  <g
     inkscape:label="Ebene 1"
     inkscape:groupmode="layer"
     id="layer1"
     transform="translate(-1.9229819,-3.4247729)">
    <path
       d="m 7.6690319,3.4247729 c -3.17289,0 -5.74605,2.572808 -5.74605,5.746749 0,2.5385891 1.64642,4.6926511 3.92995,5.4528871 0.28751,0.05256 0.39228,-0.124884 0.39228,-0.277284 0,-0.136525 -0.005,-0.497769 -0.008,-0.977194 -1.59843,0.347133 -1.93569,-0.770467 -1.93569,-0.770467 -0.26141,-0.663928 -0.63817,-0.840669 -0.63817,-0.840669 -0.52176,-0.356306 0.0395,-0.34925 0.0395,-0.34925 0.57679,0.04057 0.88018,0.592314 0.88018,0.592314 0.51259,0.878063 1.34514,0.624416 1.67252,0.477308 0.0522,-0.371122 0.20073,-0.624417 0.36477,-0.767997 -1.276,-0.145345 -2.61761,-0.638175 -2.61761,-2.8402141 0,-0.627592 0.22401,-1.140178 0.59161,-1.541992 -0.0593,-0.145344 -0.25647,-0.729544 0.0564,-1.520825 0,0 0.48225,-0.154516 1.58009,0.588786 0.45826,-0.127352 0.95003,-0.190852 1.43863,-0.193322 0.48825,0.0025 0.97967,0.06597 1.43863,0.193322 1.0971401,-0.743302 1.5786801,-0.588786 1.5786801,-0.588786 0.31362,0.791281 0.11642,1.375481 0.0575,1.520825 0.3683,0.401814 0.59055,0.9144 0.59055,1.541992 0,2.2076831 -1.3437301,2.6934581 -2.6236101,2.8356281 0.20603,0.177447 0.38982,0.528108 0.38982,1.06433 0,0.767998 -0.007,1.387828 -0.007,1.576211 0,0.153812 0.10372,0.33267 0.39512,0.276578 2.2817701,-0.761647 3.9267701,-2.913944 3.9267701,-5.4521811 0,-3.173941 -2.57316,-5.746749 -5.7471001,-5.746749"
       style="fill:#1b1817;fill-opacity:1;fill-rule:evenodd;stroke:none;stroke-width:0.0352777"
       id="gh-logo"
       inkscape:label="gh-logo" />
  </g>
</svg>
